<svg width="569" height="182" viewBox="0 0 569 182" fill="none" xmlns="http://www.w3.org/2000/svg">
<path d="M114.51 161.561C112.64 161.558 110.644 162.585 109.112 164.082C107.58 165.58 106.531 167.53 106.533 169.354C106.536 171.174 107.586 173.114 109.118 174.603C110.65 176.091 112.645 177.109 114.51 177.109C116.37 177.107 118.354 176.085 119.877 174.597C121.4 173.108 122.444 171.17 122.446 169.354C122.449 167.534 121.407 165.585 119.884 164.087C118.361 162.589 116.374 161.561 114.51 161.561ZM95.8184 150.753C95.8035 155.73 93.8674 161.8 89.9238 166.627C85.978 171.456 80.0207 175.043 71.9688 175.043C66.9782 175.043 60.0422 173.166 52.4502 169.481C44.856 165.796 36.5971 160.298 28.9609 153.048C13.6882 138.546 0.900391 117.028 0.900391 88.9678C0.900458 40.3345 41.2487 0.900391 91 0.900391C140.751 0.900392 181.101 40.3345 181.1 88.9678C181.1 125.276 158.576 156.421 126.479 169.89C126.182 176.13 120.965 181.1 114.51 181.1C107.866 181.1 102.455 175.853 102.455 169.354C102.455 162.854 107.865 157.569 114.51 157.569C117.833 157.569 120.828 158.9 123.006 161.029C151.471 148.94 171.384 121.234 171.384 88.9678C171.384 45.5838 135.392 10.4014 91 10.4014C46.6082 10.4014 10.6163 45.5838 10.6162 88.9678C10.6162 112.451 21.0943 131.439 33.9678 144.558C40.4045 151.117 47.4387 156.208 54.0586 159.658C60.6802 163.109 66.8797 164.916 71.6484 164.916C77.5083 164.916 81.1558 162.477 83.3418 159.487C85.5312 156.493 86.2585 152.939 86.2617 150.714L86.2725 149.148C86.3166 145.472 86.4645 141.645 86.0098 138.1C85.4907 134.053 84.188 130.395 81.0625 127.774C78.5364 126.137 73.7259 123.591 71.876 117.611L55.4824 76.499H55.4814V76.4971C55.4787 76.4913 55.4748 76.4827 55.4697 76.4717C55.4595 76.4494 55.4446 76.4164 55.4258 76.373C55.388 76.2863 55.3338 76.1579 55.2695 75.9902C55.141 75.655 54.9707 75.1621 54.7998 74.5312C54.4581 73.2694 54.1162 71.453 54.1162 69.2324C54.1163 62.9758 57.1567 58.3793 61.2646 55.2021C65.3687 52.028 70.5414 50.2665 74.8291 49.6719C75.3085 49.5211 75.7937 49.4366 76.3262 49.4365C76.5188 49.4365 76.7152 49.4555 76.8975 49.4756C79.1381 49.7219 80.9189 51.4194 81.2627 53.584C81.3008 53.8234 81.3447 54.0807 81.3447 54.3428C81.3447 54.6047 81.3008 54.8613 81.2627 55.1006C80.9672 56.9647 79.5977 58.4556 77.7939 58.9951L77.4277 59.0908C77.1347 59.1562 76.8408 59.1907 76.5332 59.2109C73.9885 59.5682 70.8593 60.3094 68.3682 61.8447C65.8791 63.3789 64.0322 65.7015 64.0322 69.2324V69.2412C64.0321 69.2451 64.0314 69.251 64.0312 69.2588C64.031 69.2745 64.0304 69.2983 64.0303 69.3291C64.03 69.3907 64.031 69.4814 64.0342 69.5967C64.0406 69.8275 64.0578 70.1574 64.1006 70.5518C64.1863 71.3412 64.3742 72.3868 64.7842 73.416L81.0156 114.132L81.168 114.453C82.7667 117.719 85.1738 119.409 87.207 120.285C88.2571 120.737 89.2081 120.973 89.8955 121.095C90.2391 121.156 90.5167 121.189 90.708 121.206C90.8037 121.215 90.8779 121.22 90.9277 121.223C90.9526 121.224 90.9719 121.224 90.9844 121.225L90.998 121.226H91.002C91.0049 121.225 91.0096 121.225 91.0156 121.225C91.0281 121.224 91.0474 121.224 91.0723 121.223C91.1221 121.22 91.1963 121.215 91.292 121.206C91.4833 121.189 91.7609 121.156 92.1045 121.095C92.7919 120.973 93.7429 120.738 94.793 120.286C96.8919 119.382 99.3891 117.609 100.984 114.132L117.176 73.416L117.319 73.0293C117.631 72.1291 117.784 71.2424 117.859 70.5518C117.902 70.1574 117.919 69.8275 117.926 69.5967C117.929 69.4814 117.93 69.3907 117.93 69.3291C117.93 69.2983 117.929 69.2745 117.929 69.2588C117.929 69.251 117.928 69.2451 117.928 69.2412V69.2324C117.928 65.7018 116.09 63.3797 113.611 61.8457C111.129 60.3099 108.009 59.5678 105.464 59.21C105.157 59.1974 104.824 59.1558 104.532 59.0908C102.673 58.6807 101.206 57.2798 100.771 55.4678L100.697 55.1006C100.657 54.8503 100.655 54.5943 100.655 54.3428C100.655 54.0911 100.657 53.8344 100.697 53.584C101.041 51.4182 102.863 49.723 105.103 49.4756L105.104 49.4746C105.282 49.457 105.439 49.4365 105.634 49.4365C106.165 49.4366 106.689 49.5215 107.17 49.6719C111.458 50.2664 116.621 52.0277 120.716 55.2021C124.814 58.3794 127.844 62.976 127.844 69.2324C127.844 71.4525 127.512 73.2686 127.181 74.5303C127.015 75.161 126.849 75.654 126.725 75.9893C126.662 76.1569 126.61 76.2854 126.573 76.3721C126.555 76.4154 126.54 76.4485 126.53 76.4707C126.525 76.4817 126.521 76.4904 126.519 76.4961L126.517 76.498L126.518 76.499L110.124 117.611C108.272 123.595 103.452 126.14 100.93 127.779L100.92 127.786L100.876 127.695L100.919 127.786C99.8879 128.286 99.0257 129.317 98.3193 130.761C97.6135 132.203 97.068 134.045 96.666 136.15C95.862 140.36 95.6321 145.603 95.8174 150.749L95.8184 150.753Z" fill="#6772E5" stroke="#6772E5" stroke-width="0.2"/>
<path d="M303.88 65.32C312.2 65.32 318.8 67.84 323.68 72.88C328.64 77.92 331.12 84.92 331.12 93.88V133H310.72V96.64C310.72 92.32 309.56 89 307.24 86.68C305 84.28 301.88 83.08 297.88 83.08C293.88 83.08 290.72 84.28 288.4 86.68C286.16 89 285.04 92.32 285.04 96.64V133H264.64V96.64C264.64 92.32 263.48 89 261.16 86.68C258.92 84.28 255.8 83.08 251.8 83.08C247.8 83.08 244.64 84.28 242.32 86.68C240.08 89 238.96 92.32 238.96 96.64V133H218.44V66.04H238.96V74.44C241.04 71.64 243.76 69.44 247.12 67.84C250.48 66.16 254.28 65.32 258.52 65.32C263.56 65.32 268.04 66.4 271.96 68.56C275.96 70.72 279.08 73.8 281.32 77.8C283.64 74.12 286.8 71.12 290.8 68.8C294.8 66.48 299.16 65.32 303.88 65.32ZM402.591 98.44C402.591 100.36 402.471 102.36 402.231 104.44H355.791C356.111 108.6 357.431 111.8 359.751 114.04C362.151 116.2 365.071 117.28 368.511 117.28C373.631 117.28 377.191 115.12 379.191 110.8H401.031C399.911 115.2 397.871 119.16 394.911 122.68C392.031 126.2 388.391 128.96 383.991 130.96C379.591 132.96 374.671 133.96 369.231 133.96C362.671 133.96 356.831 132.56 351.711 129.76C346.591 126.96 342.591 122.96 339.711 117.76C336.831 112.56 335.391 106.48 335.391 99.52C335.391 92.56 336.791 86.48 339.591 81.28C342.471 76.08 346.471 72.08 351.591 69.28C356.711 66.48 362.591 65.08 369.231 65.08C375.711 65.08 381.471 66.44 386.511 69.16C391.551 71.88 395.471 75.76 398.271 80.8C401.151 85.84 402.591 91.72 402.591 98.44ZM381.591 93.04C381.591 89.52 380.391 86.72 377.991 84.64C375.591 82.56 372.591 81.52 368.991 81.52C365.551 81.52 362.631 82.52 360.231 84.52C357.911 86.52 356.471 89.36 355.911 93.04H381.591ZM403.337 99.4C403.337 92.52 404.617 86.48 407.177 81.28C409.817 76.08 413.377 72.08 417.857 69.28C422.337 66.48 427.337 65.08 432.857 65.08C437.257 65.08 441.257 66 444.857 67.84C448.537 69.68 451.417 72.16 453.497 75.28V44.2H474.017V133H453.497V123.4C451.577 126.6 448.817 129.16 445.217 131.08C441.697 133 437.577 133.96 432.857 133.96C427.337 133.96 422.337 132.56 417.857 129.76C413.377 126.88 409.817 122.84 407.177 117.64C404.617 112.36 403.337 106.28 403.337 99.4ZM453.497 99.52C453.497 94.4 452.057 90.36 449.177 87.4C446.377 84.44 442.937 82.96 438.857 82.96C434.777 82.96 431.297 84.44 428.417 87.4C425.617 90.28 424.217 94.28 424.217 99.4C424.217 104.52 425.617 108.6 428.417 111.64C431.297 114.6 434.777 116.08 438.857 116.08C442.937 116.08 446.377 114.6 449.177 111.64C452.057 108.68 453.497 104.64 453.497 99.52ZM522.332 107.32C523.532 113.64 527.212 116.8 533.372 116.8C537.612 116.8 540.612 114.92 542.372 111.16C544.132 107.4 545.012 101.28 545.012 92.8C543.252 95.28 540.852 97.2 537.812 98.56C534.772 99.92 531.372 100.6 527.612 100.6C522.492 100.6 517.932 99.56 513.932 97.48C509.932 95.32 506.772 92.16 504.452 88C502.212 83.76 501.092 78.64 501.092 72.64C501.092 66.72 502.292 61.56 504.692 57.16C507.172 52.76 510.652 49.36 515.132 46.96C519.692 44.56 525.052 43.36 531.212 43.36C543.052 43.36 551.332 47.04 556.052 54.4C560.772 61.76 563.132 72.6 563.132 86.92C563.132 97.32 562.172 105.92 560.252 112.72C558.412 119.44 555.252 124.56 550.772 128.08C546.372 131.6 540.332 133.36 532.652 133.36C526.572 133.36 521.372 132.16 517.052 129.76C512.812 127.36 509.532 124.2 507.212 120.28C504.972 116.36 503.692 112.04 503.372 107.32H522.332ZM532.292 84.4C535.652 84.4 538.332 83.4 540.332 81.4C542.332 79.32 543.332 76.52 543.332 73C543.332 69.16 542.292 66.2 540.212 64.12C538.132 62.04 535.332 61 531.812 61C528.292 61 525.492 62.08 523.412 64.24C521.412 66.32 520.412 69.2 520.412 72.88C520.412 76.32 521.412 79.12 523.412 81.28C525.492 83.36 528.452 84.4 532.292 84.4Z" fill="#6772E5"/>
</svg>
