<svg width="20" height="20" viewBox="0 0 20 20" fill="none" xmlns="http://www.w3.org/2000/svg">
<path d="M12.3506 17.1465C12.1946 17.1464 12.0163 17.233 11.874 17.3721C11.7315 17.5114 11.6435 17.6849 11.6436 17.835C11.6437 17.9846 11.7324 18.1573 11.875 18.2959C12.0172 18.4339 12.1949 18.5204 12.3506 18.5205C12.5059 18.5203 12.6837 18.4333 12.8252 18.2949C12.9667 18.1564 13.0545 17.9842 13.0547 17.835L13.0508 17.7783C13.0322 17.6429 12.9493 17.4951 12.8252 17.373C12.6836 17.2338 12.5061 17.1465 12.3506 17.1465ZM10.5723 15.9756C10.5707 16.4938 10.3693 17.1204 9.96191 17.6191C9.55215 18.1207 8.93179 18.4941 8.09668 18.4941C7.57871 18.4941 6.87096 18.3002 6.10547 17.9287C5.33806 17.5563 4.50459 17.0018 3.73438 16.2705C2.19313 14.8071 0.900417 12.6325 0.900391 9.79688C0.900391 4.88191 4.97711 0.900391 10 0.900391C15.0229 0.900391 19.0997 4.8819 19.0996 9.79688C19.0996 13.4474 16.8462 16.5781 13.6318 17.9492C13.5721 18.5956 13.0237 19.0996 12.3506 19.0996C11.639 19.0994 11.0557 18.5367 11.0557 17.835C11.0559 17.1336 11.6387 16.5676 12.3506 16.5674C12.6846 16.5674 12.9876 16.693 13.2168 16.8965C16.0043 15.6893 17.9482 12.9655 17.9482 9.79688C17.9482 5.5101 14.3914 2.03027 10 2.03027C5.60858 2.03027 2.05176 5.5101 2.05176 9.79688C2.05178 12.1169 3.08691 13.9943 4.36133 15.293C4.9985 15.9422 5.69438 16.4456 6.34766 16.7861C7.00253 17.1274 7.60755 17.3017 8.06445 17.3018C8.62093 17.3018 8.95911 17.072 9.16113 16.7959C9.36666 16.5148 9.43613 16.179 9.43652 15.9717C9.43652 15.5497 9.46305 15.1192 9.41211 14.7217C9.3619 14.3302 9.23804 13.9913 8.95312 13.75C8.70692 13.5911 8.20068 13.3207 8.00391 12.6943L6.36426 8.58301V8.58203C6.36317 8.57964 6.36186 8.57671 6.36035 8.57324C6.35607 8.56341 6.3497 8.54931 6.34277 8.53125C6.32895 8.49518 6.3109 8.44311 6.29297 8.37695C6.25707 8.2444 6.22168 8.0545 6.22168 7.82324C6.22169 7.16408 6.54374 6.67962 6.97168 6.34863C7.3959 6.02067 7.92713 5.83989 8.36719 5.77832C8.41938 5.76292 8.47328 5.75395 8.53223 5.75391C8.5567 5.75391 8.58086 5.75575 8.59961 5.75781C8.86328 5.7868 9.07434 5.98702 9.11523 6.24414C9.11875 6.26621 9.124 6.29936 9.12402 6.33398C9.12402 6.3685 9.11876 6.40171 9.11523 6.42383C9.07763 6.66111 8.89458 6.84518 8.66211 6.89648C8.62944 6.90377 8.59769 6.90787 8.56641 6.91016L8.37207 6.94434C8.17158 6.98607 7.95954 7.05307 7.78418 7.16113C7.55474 7.30254 7.39355 7.5089 7.39355 7.82324V7.85742C7.39414 7.87844 7.39546 7.90884 7.39941 7.94531C7.40744 8.01924 7.42498 8.11519 7.46191 8.20801L9.08301 12.2754C9.23146 12.5989 9.46261 12.7623 9.65625 12.8457C9.75365 12.8877 9.84192 12.9097 9.90527 12.9209C9.93659 12.9265 9.96166 12.9291 9.97852 12.9307L9.99805 12.9326C9.99875 12.9326 10.0002 12.9327 10.002 12.9326C10.0059 12.9324 10.0131 12.9314 10.0215 12.9307C10.0383 12.9291 10.0634 12.9265 10.0947 12.9209C10.1581 12.9097 10.2463 12.8877 10.3438 12.8457C10.5374 12.7623 10.7685 12.599 10.917 12.2754L12.5342 8.20801C12.5711 8.1152 12.5887 8.01923 12.5967 7.94531C12.6006 7.90884 12.602 7.87844 12.6025 7.85742V7.82324C12.6025 7.50877 12.4422 7.30242 12.2139 7.16113C11.9812 7.01718 11.6835 6.94526 11.4336 6.91016V6.90918C11.4005 6.90731 11.3656 6.9035 11.334 6.89648C11.1015 6.8452 10.9185 6.66113 10.8809 6.42383C10.8756 6.39081 10.876 6.35817 10.876 6.33398C10.876 6.30965 10.8756 6.27714 10.8809 6.24414C10.9219 5.98589 11.1379 5.7868 11.4004 5.75781H11.4014C11.416 5.75636 11.4379 5.75394 11.4629 5.75391C11.5201 5.75391 11.5765 5.76337 11.6289 5.77832L11.7979 5.80664C12.2009 5.88661 12.6549 6.06076 13.0264 6.34863C13.4533 6.67968 13.7744 7.16421 13.7744 7.82324C13.7744 8.0542 13.7399 8.24359 13.7051 8.37598C13.6877 8.44207 13.6706 8.49423 13.6572 8.53027C13.6505 8.54825 13.6448 8.56246 13.6406 8.57227C13.6388 8.57647 13.6359 8.57939 13.6348 8.58203L13.6357 8.58301L11.9961 12.6943C11.798 13.3247 11.2861 13.5943 11.042 13.7529L11.0312 13.7607V13.7598C10.9538 13.7973 10.8789 13.8799 10.8125 14.0156C10.7467 14.15 10.6946 14.3261 10.6553 14.5322C10.5766 14.9442 10.5529 15.461 10.5713 15.9717L10.5723 15.9756Z" fill="white" stroke="white" stroke-width="0.2"/>
</svg>
